<?xml version="1.0" encoding="UTF-8"?>
<svg id="Layer_1" xmlns="http://www.w3.org/2000/svg" version="1.1" viewBox="0 0 492.2 144">
  <!-- Generator: Adobe Illustrator 29.5.1, SVG Export Plug-In . SVG Version: 2.1.0 Build 141)  -->
  <defs>
    <style>
      .st0 {
        fill: #d3d812;
      }

      .st1 {
        fill: #fff;
      }
    </style>
  </defs>
  <path class="st0" d="M480.2,60h-14v-14c0-6.6-5.4-12-12-12s-12,5.4-12,12v14h-14c-6.6,0-12,5.4-12,12s5.4,12,12,12h14v14c0,6.6,5.4,12,12,12s12-5.4,12-12v-14h14c6.6,0,12-5.4,12-12s-5.4-12-12-12Z"/>
  <path class="st1" d="M306.1,110.4c-4.9-4.9-12.4-5.9-18.4-2.4-24.1,13.9-60.4-2.5-61.5-33-1.7-24,17.3-44,41-44s0,0,0,0V0c-48.1-2.4-83.2,50.3-68.6,95.8,7.7,24,28.4,41.2,53,46.4,18.8,3.9,36.7.5,51.4-7.9,8.7-5,10.2-16.9,3.1-24h0Z"/>
  <g>
    <polygon class="st1" points="301.4 0 287.7 0 287.7 30.9 397.7 144 442.2 144 301.4 0"/>
    <path class="st1" d="M441.8.1h-44.5s-17.8,17.7-17.8,17.7c-6.1,6.1-6.1,16.1,0,22.3h0c6.1,6.1,16.1,6.1,22.3,0L441.8.1Z"/>
  </g>
  <path class="st0" d="M137.5,6.5L0,144h44.5l99.4-99.4v40.8c0,8.5,6.9,15.4,15.4,15.4h0c8.5,0,15.4-6.9,15.4-15.4V21.9c0-12-9.8-21.8-21.8-21.8h0c-5.8,0-11.3,2.3-15.4,6.4Z"/>
</svg>